<svg id="Layer_1" data-name="Layer 1" xmlns="http://www.w3.org/2000/svg" viewBox="0 0 945.65 669.02"><defs><style>.cls-1,.cls-2{fill:none;stroke:#000;stroke-miterlimit:10;stroke-width:10px;}.cls-2{stroke-linecap:round;}</style></defs><title>logo</title><path class="cls-1" d="M180.78,659.33a48.61,48.61,0,1,1,24.53-90.57" transform="translate(-127.18 -265.49)"/><path class="cls-1" d="M205.31,568.77c-0.15-2.19-.23-4.41-0.23-6.64a97.24,97.24,0,0,1,139-87.79" transform="translate(-127.18 -265.49)"/><line class="cls-1" x1="126.51" y1="393.84" x2="53.61" y2="393.84"/><path class="cls-1" d="M344.08,474.34a145.92,145.92,0,0,1,200.86-93.58,143.83,143.83,0,0,1,25.27,14.76" transform="translate(-127.18 -265.49)"/><path class="cls-1" d="M570.22,395.52q2.9-7.53,6.36-14.76A194.44,194.44,0,0,1,751.89,270.49c107.38,0,194.42,87,194.42,194.42,0,1,0,2.05,0,3.08" transform="translate(-127.18 -265.49)"/><path class="cls-1" d="M946.28,468a97.22,97.22,0,1,1,24.33,191.34" transform="translate(-127.18 -265.49)"/><polyline class="cls-1" points="338.8 393.84 305.02 393.84 175.12 393.84 162.97 393.84 126.51 393.84"/><polyline class="cls-1" points="843.44 393.84 634.26 393.84 624.72 393.84 594.88 393.84"/><line class="cls-2" x1="524.51" y1="334.77" x2="634.26" y2="334.77"/><line class="cls-2" x1="414.77" y1="664.02" x2="414.77" y2="444.51"/><polyline class="cls-2" points="414.77 664.02 594.88 393.84 596.27 391.76 634.26 334.77"/><line class="cls-2" x1="414.77" y1="444.51" x2="305.02" y2="444.51"/><polyline class="cls-2" points="524.51 115.27 524.51 296.63 524.51 334.77"/><polyline class="cls-2" points="524.51 115.27 484.11 175.86 436.3 247.58 403.6 296.63 339.52 392.75 338.8 393.84 305.02 444.51"/></svg>